<svg width="16" height="16" viewBox="0 0 16 16" fill="none" xmlns="http://www.w3.org/2000/svg">
<path d="M8 7.69226C7.0375 7.69226 6.21358 7.34959 5.52825 6.66426C4.84275 5.97876 4.5 5.15476 4.5 4.19226C4.5 3.22976 4.84275 2.40584 5.52825 1.72051C6.21358 1.03501 7.0375 0.692261 8 0.692261C8.9625 0.692261 9.78642 1.03501 10.4718 1.72051C11.1573 2.40584 11.5 3.22976 11.5 4.19226C11.5 5.15476 11.1573 5.97876 10.4718 6.66426C9.78642 7.34959 8.9625 7.69226 8 7.69226ZM0.5 13.7885V13.0845C0.5 12.5948 0.633 12.1413 0.899 11.724C1.165 11.3067 1.5205 10.9858 1.9655 10.7615C2.95383 10.277 3.95092 9.91359 4.95675 9.67126C5.96258 9.42893 6.977 9.30776 8 9.30776C9.023 9.30776 10.0374 9.42893 11.0433 9.67126C12.0491 9.91359 13.0462 10.277 14.0345 10.7615C14.4795 10.9858 14.835 11.3067 15.101 11.724C15.367 12.1413 15.5 12.5948 15.5 13.0845V13.7885C15.5 14.2102 15.3523 14.5688 15.0568 14.8645C14.7613 15.16 14.4026 15.3078 13.9808 15.3078H2.01925C1.59742 15.3078 1.23875 15.16 0.94325 14.8645C0.64775 14.5688 0.5 14.2102 0.5 13.7885ZM2 13.8078H14V13.0845C14 12.882 13.9413 12.6945 13.824 12.522C13.7067 12.3497 13.5474 12.209 13.3462 12.1C12.4846 11.6757 11.6061 11.3542 10.7107 11.1355C9.81525 10.917 8.91167 10.8078 8 10.8078C7.08833 10.8078 6.18475 10.917 5.28925 11.1355C4.39392 11.3542 3.51542 11.6757 2.65375 12.1C2.45258 12.209 2.29333 12.3497 2.176 12.522C2.05867 12.6945 2 12.882 2 13.0845V13.8078ZM8 6.19226C8.55 6.19226 9.02083 5.99643 9.4125 5.60476C9.80417 5.21309 10 4.74226 10 4.19226C10 3.64226 9.80417 3.17143 9.4125 2.77976C9.02083 2.38809 8.55 2.19226 8 2.19226C7.45 2.19226 6.97917 2.38809 6.5875 2.77976C6.19583 3.17143 6 3.64226 6 4.19226C6 4.74226 6.19583 5.21309 6.5875 5.60476C6.97917 5.99643 7.45 6.19226 8 6.19226Z" fill="#ACACAC"/>
</svg>
